<mxfile host="app.diagrams.net" agent="Mozilla/5.0 (Windows NT 10.0; Win64; x64) AppleWebKit/537.36 (KHTML, like Gecko) Chrome/128.0.0.0 Safari/537.36" version="24.7.7">
  <diagram name="Page-1" id="Mre5IoUCy294ziYZFxLM">
    <mxGraphModel dx="977" dy="607" grid="1" gridSize="10" guides="1" tooltips="1" connect="1" arrows="1" fold="1" page="1" pageScale="1" pageWidth="827" pageHeight="1169" math="0" shadow="0">
      <root>
        <mxCell id="0" />
        <mxCell id="1" parent="0" />
        <mxCell id="iezBH3VWWi5ehmwXC74o-2" value="&lt;b&gt;LOT&lt;/b&gt;" style="html=1;dashed=0;whiteSpace=wrap;" parent="1" vertex="1">
          <mxGeometry x="150" y="80" width="100" height="50" as="geometry" />
        </mxCell>
        <mxCell id="iezBH3VWWi5ehmwXC74o-3" value="N&lt;span style=&quot;background-color: initial;&quot;&gt;oOfSlots&lt;/span&gt;" style="ellipse;whiteSpace=wrap;html=1;align=center;" parent="1" vertex="1">
          <mxGeometry x="50" y="160" width="100" height="40" as="geometry" />
        </mxCell>
        <mxCell id="iezBH3VWWi5ehmwXC74o-4" value="Location" style="ellipse;whiteSpace=wrap;html=1;align=center;" parent="1" vertex="1">
          <mxGeometry x="10" y="90" width="100" height="40" as="geometry" />
        </mxCell>
        <mxCell id="iezBH3VWWi5ehmwXC74o-5" value="&lt;u&gt;ID&lt;/u&gt;" style="ellipse;whiteSpace=wrap;html=1;align=center;" parent="1" vertex="1">
          <mxGeometry x="170" y="170" width="100" height="40" as="geometry" />
        </mxCell>
        <mxCell id="iezBH3VWWi5ehmwXC74o-9" value="" style="endArrow=none;html=1;rounded=0;" parent="1" edge="1">
          <mxGeometry relative="1" as="geometry">
            <mxPoint x="110" y="109.5" as="sourcePoint" />
            <mxPoint x="150" y="110" as="targetPoint" />
          </mxGeometry>
        </mxCell>
        <mxCell id="iezBH3VWWi5ehmwXC74o-13" value="" style="endArrow=none;html=1;rounded=0;entryX=0.592;entryY=1.016;entryDx=0;entryDy=0;entryPerimeter=0;" parent="1" target="iezBH3VWWi5ehmwXC74o-2" edge="1">
          <mxGeometry relative="1" as="geometry">
            <mxPoint x="220" y="170" as="sourcePoint" />
            <mxPoint x="240" y="140" as="targetPoint" />
          </mxGeometry>
        </mxCell>
        <mxCell id="iezBH3VWWi5ehmwXC74o-14" value="" style="endArrow=none;html=1;rounded=0;entryX=0.25;entryY=1;entryDx=0;entryDy=0;exitX=0.744;exitY=0.01;exitDx=0;exitDy=0;exitPerimeter=0;" parent="1" source="iezBH3VWWi5ehmwXC74o-3" target="iezBH3VWWi5ehmwXC74o-2" edge="1">
          <mxGeometry relative="1" as="geometry">
            <mxPoint x="149" y="180" as="sourcePoint" />
            <mxPoint x="138" y="141" as="targetPoint" />
          </mxGeometry>
        </mxCell>
        <mxCell id="iezBH3VWWi5ehmwXC74o-15" value="&lt;b&gt;Has&lt;/b&gt;" style="shape=rhombus;perimeter=rhombusPerimeter;whiteSpace=wrap;html=1;align=center;" parent="1" vertex="1">
          <mxGeometry x="330" y="80" width="120" height="60" as="geometry" />
        </mxCell>
        <mxCell id="iezBH3VWWi5ehmwXC74o-16" value="" style="endArrow=none;html=1;rounded=0;" parent="1" edge="1">
          <mxGeometry relative="1" as="geometry">
            <mxPoint x="250" y="109.5" as="sourcePoint" />
            <mxPoint x="330" y="110" as="targetPoint" />
          </mxGeometry>
        </mxCell>
        <mxCell id="Z_uDVzktqWNjToLF8HfJ-2" value="1" style="edgeLabel;html=1;align=center;verticalAlign=middle;resizable=0;points=[];" vertex="1" connectable="0" parent="iezBH3VWWi5ehmwXC74o-16">
          <mxGeometry x="-0.6715" relative="1" as="geometry">
            <mxPoint as="offset" />
          </mxGeometry>
        </mxCell>
        <mxCell id="iezBH3VWWi5ehmwXC74o-17" value="" style="endArrow=none;html=1;rounded=0;" parent="1" edge="1">
          <mxGeometry relative="1" as="geometry">
            <mxPoint x="451" y="109.5" as="sourcePoint" />
            <mxPoint x="531" y="110" as="targetPoint" />
          </mxGeometry>
        </mxCell>
        <mxCell id="Z_uDVzktqWNjToLF8HfJ-1" value="n" style="edgeLabel;html=1;align=center;verticalAlign=middle;resizable=0;points=[];" vertex="1" connectable="0" parent="iezBH3VWWi5ehmwXC74o-17">
          <mxGeometry x="0.6533" y="2" relative="1" as="geometry">
            <mxPoint as="offset" />
          </mxGeometry>
        </mxCell>
        <mxCell id="iezBH3VWWi5ehmwXC74o-18" value="&lt;b&gt;SLOT&lt;/b&gt;" style="html=1;dashed=0;whiteSpace=wrap;" parent="1" vertex="1">
          <mxGeometry x="530" y="85" width="100" height="50" as="geometry" />
        </mxCell>
        <mxCell id="iezBH3VWWi5ehmwXC74o-19" value="ID" style="ellipse;whiteSpace=wrap;html=1;align=center;fontStyle=4;" parent="1" vertex="1">
          <mxGeometry x="540" y="20" width="100" height="40" as="geometry" />
        </mxCell>
        <mxCell id="iezBH3VWWi5ehmwXC74o-21" value="Type" style="ellipse;whiteSpace=wrap;html=1;align=center;" parent="1" vertex="1">
          <mxGeometry x="660" y="45" width="100" height="40" as="geometry" />
        </mxCell>
        <mxCell id="iezBH3VWWi5ehmwXC74o-23" value="" style="endArrow=none;html=1;rounded=0;exitX=1;exitY=0.25;exitDx=0;exitDy=0;" parent="1" source="iezBH3VWWi5ehmwXC74o-18" edge="1">
          <mxGeometry relative="1" as="geometry">
            <mxPoint x="640" y="79" as="sourcePoint" />
            <mxPoint x="680" y="79" as="targetPoint" />
          </mxGeometry>
        </mxCell>
        <mxCell id="iezBH3VWWi5ehmwXC74o-24" value="" style="endArrow=none;html=1;rounded=0;exitX=0.6;exitY=0.02;exitDx=0;exitDy=0;exitPerimeter=0;" parent="1" source="iezBH3VWWi5ehmwXC74o-18" edge="1">
          <mxGeometry relative="1" as="geometry">
            <mxPoint x="590" y="80" as="sourcePoint" />
            <mxPoint x="589.5" y="60" as="targetPoint" />
          </mxGeometry>
        </mxCell>
        <mxCell id="iezBH3VWWi5ehmwXC74o-29" value="&lt;b&gt;Reserves&lt;/b&gt;" style="shape=rhombus;perimeter=rhombusPerimeter;whiteSpace=wrap;html=1;align=center;" parent="1" vertex="1">
          <mxGeometry x="520" y="230" width="120" height="60" as="geometry" />
        </mxCell>
        <mxCell id="iezBH3VWWi5ehmwXC74o-30" value="" style="endArrow=none;html=1;rounded=0;" parent="1" edge="1">
          <mxGeometry relative="1" as="geometry">
            <mxPoint x="581" y="136" as="sourcePoint" />
            <mxPoint x="580" y="230" as="targetPoint" />
          </mxGeometry>
        </mxCell>
        <mxCell id="Z_uDVzktqWNjToLF8HfJ-7" value="1&amp;nbsp; &amp;nbsp;n&amp;nbsp;&amp;nbsp;" style="edgeLabel;html=1;align=center;verticalAlign=middle;resizable=0;points=[];" vertex="1" connectable="0" parent="iezBH3VWWi5ehmwXC74o-30">
          <mxGeometry x="-0.8334" y="3" relative="1" as="geometry">
            <mxPoint as="offset" />
          </mxGeometry>
        </mxCell>
        <mxCell id="iezBH3VWWi5ehmwXC74o-32" value="" style="endArrow=none;html=1;rounded=0;" parent="1" edge="1">
          <mxGeometry relative="1" as="geometry">
            <mxPoint x="580" y="290" as="sourcePoint" />
            <mxPoint x="579" y="384" as="targetPoint" />
          </mxGeometry>
        </mxCell>
        <mxCell id="Z_uDVzktqWNjToLF8HfJ-3" value="&amp;nbsp;1&amp;nbsp; &amp;nbsp;m" style="edgeLabel;html=1;align=center;verticalAlign=middle;resizable=0;points=[];" vertex="1" connectable="0" parent="iezBH3VWWi5ehmwXC74o-32">
          <mxGeometry x="0.5141" relative="1" as="geometry">
            <mxPoint as="offset" />
          </mxGeometry>
        </mxCell>
        <mxCell id="iezBH3VWWi5ehmwXC74o-33" value="StartTime" style="ellipse;whiteSpace=wrap;html=1;align=center;" parent="1" vertex="1">
          <mxGeometry x="630" y="190" width="100" height="40" as="geometry" />
        </mxCell>
        <mxCell id="iezBH3VWWi5ehmwXC74o-35" value="" style="endArrow=none;html=1;rounded=0;" parent="1" source="iezBH3VWWi5ehmwXC74o-29" edge="1">
          <mxGeometry relative="1" as="geometry">
            <mxPoint x="600" y="230" as="sourcePoint" />
            <mxPoint x="660" y="230" as="targetPoint" />
          </mxGeometry>
        </mxCell>
        <mxCell id="Z_uDVzktqWNjToLF8HfJ-6" value="" style="edgeStyle=orthogonalEdgeStyle;rounded=0;orthogonalLoop=1;jettySize=auto;html=1;" edge="1" parent="1" source="iezBH3VWWi5ehmwXC74o-37" target="iezBH3VWWi5ehmwXC74o-29">
          <mxGeometry relative="1" as="geometry" />
        </mxCell>
        <mxCell id="iezBH3VWWi5ehmwXC74o-37" value="&lt;b&gt;USER&lt;/b&gt;" style="html=1;dashed=0;whiteSpace=wrap;" parent="1" vertex="1">
          <mxGeometry x="530" y="370" width="100" height="50" as="geometry" />
        </mxCell>
        <mxCell id="iezBH3VWWi5ehmwXC74o-38" value="&lt;b&gt;VEHICLE&lt;/b&gt;" style="html=1;dashed=0;whiteSpace=wrap;" parent="1" vertex="1">
          <mxGeometry x="150" y="370" width="100" height="50" as="geometry" />
        </mxCell>
        <mxCell id="iezBH3VWWi5ehmwXC74o-41" value="&lt;b&gt;Owns&lt;/b&gt;" style="shape=rhombus;perimeter=rhombusPerimeter;whiteSpace=wrap;html=1;align=center;" parent="1" vertex="1">
          <mxGeometry x="330" y="370" width="120" height="60" as="geometry" />
        </mxCell>
        <mxCell id="iezBH3VWWi5ehmwXC74o-42" value="" style="endArrow=none;html=1;rounded=0;" parent="1" edge="1">
          <mxGeometry relative="1" as="geometry">
            <mxPoint x="250" y="400" as="sourcePoint" />
            <mxPoint x="330" y="399.5" as="targetPoint" />
          </mxGeometry>
        </mxCell>
        <mxCell id="Z_uDVzktqWNjToLF8HfJ-4" value="n" style="edgeLabel;html=1;align=center;verticalAlign=middle;resizable=0;points=[];" vertex="1" connectable="0" parent="iezBH3VWWi5ehmwXC74o-42">
          <mxGeometry x="-0.7921" relative="1" as="geometry">
            <mxPoint as="offset" />
          </mxGeometry>
        </mxCell>
        <mxCell id="iezBH3VWWi5ehmwXC74o-43" value="" style="endArrow=none;html=1;rounded=0;" parent="1" edge="1">
          <mxGeometry relative="1" as="geometry">
            <mxPoint x="450" y="400" as="sourcePoint" />
            <mxPoint x="530" y="399.5" as="targetPoint" />
          </mxGeometry>
        </mxCell>
        <mxCell id="Z_uDVzktqWNjToLF8HfJ-5" value="1" style="edgeLabel;html=1;align=center;verticalAlign=middle;resizable=0;points=[];" vertex="1" connectable="0" parent="iezBH3VWWi5ehmwXC74o-43">
          <mxGeometry x="0.6731" y="-2" relative="1" as="geometry">
            <mxPoint as="offset" />
          </mxGeometry>
        </mxCell>
        <mxCell id="iezBH3VWWi5ehmwXC74o-44" value="" style="endArrow=none;html=1;rounded=0;exitX=0.5;exitY=0;exitDx=0;exitDy=0;" parent="1" source="iezBH3VWWi5ehmwXC74o-38" edge="1">
          <mxGeometry relative="1" as="geometry">
            <mxPoint x="50" y="260" as="sourcePoint" />
            <mxPoint x="520" y="259.5" as="targetPoint" />
            <Array as="points">
              <mxPoint x="200" y="320" />
              <mxPoint x="200" y="260" />
            </Array>
          </mxGeometry>
        </mxCell>
        <mxCell id="Z_uDVzktqWNjToLF8HfJ-8" value="1&amp;nbsp; &amp;nbsp;1" style="edgeLabel;html=1;align=center;verticalAlign=middle;resizable=0;points=[];" vertex="1" connectable="0" parent="iezBH3VWWi5ehmwXC74o-44">
          <mxGeometry x="-0.9426" y="1" relative="1" as="geometry">
            <mxPoint as="offset" />
          </mxGeometry>
        </mxCell>
        <mxCell id="iezBH3VWWi5ehmwXC74o-45" value="ID" style="ellipse;whiteSpace=wrap;html=1;align=center;fontStyle=4;" parent="1" vertex="1">
          <mxGeometry x="690" y="340" width="100" height="40" as="geometry" />
        </mxCell>
        <mxCell id="iezBH3VWWi5ehmwXC74o-46" value="Name" style="ellipse;whiteSpace=wrap;html=1;align=center;" parent="1" vertex="1">
          <mxGeometry x="690" y="400" width="100" height="40" as="geometry" />
        </mxCell>
        <mxCell id="iezBH3VWWi5ehmwXC74o-47" value="UserName" style="ellipse;whiteSpace=wrap;html=1;align=center;" parent="1" vertex="1">
          <mxGeometry x="710" y="450" width="100" height="40" as="geometry" />
        </mxCell>
        <mxCell id="iezBH3VWWi5ehmwXC74o-48" value="Type" style="ellipse;whiteSpace=wrap;html=1;align=center;" parent="1" vertex="1">
          <mxGeometry x="650" y="490" width="100" height="40" as="geometry" />
        </mxCell>
        <mxCell id="iezBH3VWWi5ehmwXC74o-49" value="Phone" style="ellipse;whiteSpace=wrap;html=1;align=center;" parent="1" vertex="1">
          <mxGeometry x="540" y="490" width="100" height="40" as="geometry" />
        </mxCell>
        <mxCell id="iezBH3VWWi5ehmwXC74o-50" value="Password" style="ellipse;whiteSpace=wrap;html=1;align=center;" parent="1" vertex="1">
          <mxGeometry x="440" y="460" width="100" height="40" as="geometry" />
        </mxCell>
        <mxCell id="iezBH3VWWi5ehmwXC74o-52" style="edgeStyle=orthogonalEdgeStyle;rounded=0;orthogonalLoop=1;jettySize=auto;html=1;exitX=0.5;exitY=1;exitDx=0;exitDy=0;" parent="1" source="iezBH3VWWi5ehmwXC74o-46" target="iezBH3VWWi5ehmwXC74o-46" edge="1">
          <mxGeometry relative="1" as="geometry" />
        </mxCell>
        <mxCell id="iezBH3VWWi5ehmwXC74o-53" value="" style="endArrow=none;html=1;rounded=0;" parent="1" edge="1">
          <mxGeometry relative="1" as="geometry">
            <mxPoint x="630" y="390" as="sourcePoint" />
            <mxPoint x="700" y="370" as="targetPoint" />
          </mxGeometry>
        </mxCell>
        <mxCell id="iezBH3VWWi5ehmwXC74o-54" value="" style="endArrow=none;html=1;rounded=0;entryX=0;entryY=0.5;entryDx=0;entryDy=0;" parent="1" target="iezBH3VWWi5ehmwXC74o-46" edge="1">
          <mxGeometry relative="1" as="geometry">
            <mxPoint x="630" y="410" as="sourcePoint" />
            <mxPoint x="680" y="410" as="targetPoint" />
          </mxGeometry>
        </mxCell>
        <mxCell id="iezBH3VWWi5ehmwXC74o-55" value="" style="endArrow=none;html=1;rounded=0;entryX=0;entryY=0;entryDx=0;entryDy=0;exitX=0.75;exitY=1;exitDx=0;exitDy=0;" parent="1" source="iezBH3VWWi5ehmwXC74o-37" target="iezBH3VWWi5ehmwXC74o-47" edge="1">
          <mxGeometry relative="1" as="geometry">
            <mxPoint x="550" y="430" as="sourcePoint" />
            <mxPoint x="710" y="430" as="targetPoint" />
          </mxGeometry>
        </mxCell>
        <mxCell id="iezBH3VWWi5ehmwXC74o-56" value="" style="endArrow=none;html=1;rounded=0;exitX=0.4;exitY=1.024;exitDx=0;exitDy=0;exitPerimeter=0;entryX=0.424;entryY=-0.02;entryDx=0;entryDy=0;entryPerimeter=0;" parent="1" source="iezBH3VWWi5ehmwXC74o-37" target="iezBH3VWWi5ehmwXC74o-48" edge="1">
          <mxGeometry relative="1" as="geometry">
            <mxPoint x="510" y="469.5" as="sourcePoint" />
            <mxPoint x="670" y="469.5" as="targetPoint" />
          </mxGeometry>
        </mxCell>
        <mxCell id="iezBH3VWWi5ehmwXC74o-57" value="" style="endArrow=none;html=1;rounded=0;entryX=0;entryY=1;entryDx=0;entryDy=0;exitX=0.38;exitY=0.05;exitDx=0;exitDy=0;exitPerimeter=0;" parent="1" source="iezBH3VWWi5ehmwXC74o-50" target="iezBH3VWWi5ehmwXC74o-37" edge="1">
          <mxGeometry relative="1" as="geometry">
            <mxPoint x="470" y="460" as="sourcePoint" />
            <mxPoint x="630" y="460" as="targetPoint" />
          </mxGeometry>
        </mxCell>
        <mxCell id="iezBH3VWWi5ehmwXC74o-58" value="" style="endArrow=none;html=1;rounded=0;entryX=0.5;entryY=0;entryDx=0;entryDy=0;exitX=0.25;exitY=1;exitDx=0;exitDy=0;" parent="1" source="iezBH3VWWi5ehmwXC74o-37" target="iezBH3VWWi5ehmwXC74o-49" edge="1">
          <mxGeometry relative="1" as="geometry">
            <mxPoint x="530" y="400" as="sourcePoint" />
            <mxPoint x="690" y="400" as="targetPoint" />
          </mxGeometry>
        </mxCell>
        <mxCell id="iezBH3VWWi5ehmwXC74o-59" value="PlateNo" style="ellipse;whiteSpace=wrap;html=1;align=center;fontStyle=4;" parent="1" vertex="1">
          <mxGeometry x="30" y="330" width="100" height="40" as="geometry" />
        </mxCell>
        <mxCell id="iezBH3VWWi5ehmwXC74o-60" value="Name" style="ellipse;whiteSpace=wrap;html=1;align=center;" parent="1" vertex="1">
          <mxGeometry x="20" y="400" width="100" height="40" as="geometry" />
        </mxCell>
        <mxCell id="iezBH3VWWi5ehmwXC74o-61" value="Type" style="ellipse;whiteSpace=wrap;html=1;align=center;" parent="1" vertex="1">
          <mxGeometry x="70" y="470" width="100" height="40" as="geometry" />
        </mxCell>
        <mxCell id="iezBH3VWWi5ehmwXC74o-62" value="" style="endArrow=none;html=1;rounded=0;entryX=0;entryY=0;entryDx=0;entryDy=0;" parent="1" target="iezBH3VWWi5ehmwXC74o-38" edge="1">
          <mxGeometry relative="1" as="geometry">
            <mxPoint x="130" y="349.5" as="sourcePoint" />
            <mxPoint x="290" y="349.5" as="targetPoint" />
          </mxGeometry>
        </mxCell>
        <mxCell id="iezBH3VWWi5ehmwXC74o-63" value="" style="endArrow=none;html=1;rounded=0;entryX=0;entryY=0.75;entryDx=0;entryDy=0;" parent="1" target="iezBH3VWWi5ehmwXC74o-38" edge="1">
          <mxGeometry relative="1" as="geometry">
            <mxPoint x="120" y="419.5" as="sourcePoint" />
            <mxPoint x="280" y="419.5" as="targetPoint" />
          </mxGeometry>
        </mxCell>
        <mxCell id="iezBH3VWWi5ehmwXC74o-64" value="" style="endArrow=none;html=1;rounded=0;entryX=0.432;entryY=0.976;entryDx=0;entryDy=0;entryPerimeter=0;" parent="1" target="iezBH3VWWi5ehmwXC74o-38" edge="1">
          <mxGeometry relative="1" as="geometry">
            <mxPoint x="160" y="479.5" as="sourcePoint" />
            <mxPoint x="320" y="479.5" as="targetPoint" />
          </mxGeometry>
        </mxCell>
      </root>
    </mxGraphModel>
  </diagram>
</mxfile>
